<?xml version="1.0" encoding="iso-8859-1"?>
<!-- Uploaded to: SVG Repo, www.svgrepo.com, Generator: SVG Repo Mixer Tools -->
<svg height="18px" width="18px" version="1.1" id="Capa_1" xmlns="http://www.w3.org/2000/svg" xmlns:xlink="http://www.w3.org/1999/xlink" 
	 viewBox="0 0 297.221 297.221" xml:space="preserve">
<g>
	<path style="fill:#FFD4C4;" d="M192.826,48.31c2.648,3.346,4.311,7.189,5.013,11.169c0.868-0.769,1.795-1.448,2.747-2.083
		l6.177-6.176c4.849-4.849,5.595-12.651,1.339-18.028c-2.684-3.391-6.6-5.086-10.515-5.086c-3.43,0-6.859,1.301-9.462,3.903
		l-7.773,7.774C185.221,41.267,189.569,44.196,192.826,48.31z"/>
	<path style="fill:#FFD4C4;" d="M93.882,98.809l0.233,8.119l70.919-70.186c4.849-4.849,5.595-12.65,1.339-18.027
		c-2.684-3.391-6.599-5.086-10.515-5.087c-3.43,0-6.859,1.302-9.462,3.903L84.526,79.404C90.182,83.997,93.822,90.984,93.882,98.809
		z"/>
	<path style="fill:#FFD4C4;" d="M27.728,190.471l3.533-4.108l12.145-88.307C43.864,85.734,53.198,75.646,65.186,74l-0.345-12.036
		c0-7.286-5.962-13.247-13.248-13.247c-7.286,0-13.247,5.961-13.247,13.247l-12.72,92.483c-0.001,0.01-0.006,0.02-0.012,0.026
		l-12.281,14.277c-1.918,2.229-1.791,5.561,0.291,7.64L27.728,190.471z"/>
	<path style="fill:#FF684D;" d="M283.762,32.835c2.705-1.913,3.346-5.658,1.432-8.363c-1.914-2.705-5.657-3.347-8.363-1.432
		l-14.984,10.602c-2.705,1.913-3.346,5.658-1.432,8.363c1.169,1.652,3.022,2.535,4.902,2.535c1.198,0,2.408-0.358,3.461-1.104
		L283.762,32.835z"/>
	<path style="fill:#FF684D;" d="M244.064,29.387c0.695,0.262,1.409,0.386,2.11,0.386c2.428,0,4.713-1.484,5.617-3.891l6.46-17.182
		c1.166-3.101-0.403-6.561-3.505-7.727c-3.101-1.167-6.562,0.404-7.728,3.505l-6.46,17.182
		C239.393,24.761,240.962,28.221,244.064,29.387z"/>
	<path style="fill:#FF684D;" d="M291.223,55.611c-0.041,0-0.082,0-0.124,0l-18.351,0.154c-3.312,0.067-5.944,2.605-5.877,5.918
		c0.066,3.272,2.739,5.928,5.997,5.928c0.041,0,0.082,0,0.124,0l18.351-0.312c3.312-0.067,5.944-2.732,5.877-6.045
		C297.154,57.982,294.481,55.611,291.223,55.611z"/>
	<path style="fill:#FFD4C4;" d="M247.935,176.539c5.573-5.572,5.179-14.941-1.183-19.977c-2.382-1.885-5.24-2.789-8.107-2.789
		c-3.604,0-7.22,1.428-9.921,4.129l-29.974,29.974c-1.206,1.207-2.788,1.81-4.37,1.81c-1.581,0-3.163-0.603-4.37-1.81l-0.078-0.079
		c-2.612-2.611-2.612-6.847,0-9.458l48.349-48.35c4.849-4.849,5.596-12.651,1.34-18.027c-2.684-3.392-6.6-5.087-10.515-5.087
		c-3.43,0-6.859,1.301-9.462,3.903l-48.811,48.81c-1.258,1.258-2.906,1.887-4.555,1.887c-1.649,0-3.298-0.629-4.556-1.887
		c-2.553-2.554-2.553-6.692,0-9.246l62.081-62.081c4.849-4.849,5.596-12.651,1.34-18.027c-2.684-3.391-6.6-5.086-10.515-5.087
		c-3.431,0-6.86,1.301-9.462,3.903l-62.374,62.373c-1.275,1.275-2.946,1.913-4.617,1.913s-3.342-0.638-4.617-1.913l0,0
		c-2.519-2.519-2.519-6.602,0-9.121l48.518-48.518c4.849-4.849,5.596-12.651,1.34-18.028c-2.684-3.391-6.6-5.086-10.515-5.086
		c-3.431,0-6.859,1.301-9.462,3.903l-70.431,70.431c-1.251,1.251-2.795,1.813-4.309,1.813c-3.104,0-6.088-2.361-6.191-5.987
		l-0.626-21.824c0-7.286-5.961-13.248-13.247-13.248c-7.286,0-13.248,5.962-13.248,13.248l-12.719,92.483
		c-0.002,0.01-0.006,0.019-0.013,0.026l-12.28,14.276c-1.919,2.23-1.792,5.562,0.291,7.64l69.671,69.56
		c1.088,1.087,2.524,1.641,3.968,1.641c1.2,0,2.405-0.383,3.419-1.162l15.655-12.022c0.671-0.515,1.446-0.862,2.271-1.043
		c27.159-5.919,58.076-29.66,87.653-59.237L247.935,176.539z"/>
	<path d="M254.2,147.154c-3.073-2.433-6.711-4.089-10.557-4.867c0.254-0.46,0.491-0.928,0.715-1.403l2.408-2.408
		c9.274-9.275,10.248-23.874,2.264-33.961c-3.769-4.761-9.001-7.925-14.812-9.106c0.415-0.764,0.783-1.545,1.117-2.338
		c6.316-9.149,6.213-21.445-0.782-30.283c-3.77-4.764-9.004-7.938-14.818-9.117c4.8-8.826,4.187-19.826-2.225-27.925
		c-4.848-6.125-12.109-9.639-19.923-9.639c-6.257,0-12.16,2.236-16.792,6.33c-0.701-3.979-2.363-7.822-5.012-11.169
		c-4.849-6.125-12.11-9.638-19.924-9.639l0,0c-6.79,0-13.164,2.635-17.947,7.418l-60.84,60.84l-0.232-8.12
		c-0.107-13.83-11.392-25.049-25.247-25.049c-13.604,0-24.729,10.815-25.229,24.298l-12.146,88.306l-9.983,11.604
		c-5.983,6.957-5.582,17.481,0.915,23.962L19.987,199.7c-4.574,6.881-3.773,16.266,2.206,22.23l69.667,69.557
		c3.329,3.321,7.748,5.148,12.446,5.148c3.857,0,7.668-1.294,10.729-3.645l14.544-11.168c13.991-3.305,29.416-10.812,45.874-22.33
		c14.371-10.058,29.962-23.46,46.337-39.836l34.631-34.631c5.107-5.107,7.795-12.188,7.375-19.427
		C263.376,158.371,259.879,151.649,254.2,147.154z M123.38,271.45l-15.655,12.022c-1.014,0.779-2.219,1.162-3.419,1.162
		c-1.443,0-2.88-0.554-3.968-1.641l-69.671-69.56c-2.083-2.077-2.21-5.409-0.291-7.64l12.28-14.276
		c0.007-0.008,0.011-0.017,0.013-0.026l12.719-92.483c0-7.286,5.962-13.248,13.248-13.248c7.286,0,13.247,5.962,13.247,13.248
		l0.626,21.824c0.104,3.626,3.087,5.987,6.191,5.987c1.514,0,3.058-0.562,4.309-1.813l70.431-70.431
		c2.603-2.603,6.031-3.903,9.462-3.903c3.915,0,7.831,1.695,10.515,5.086c4.256,5.377,3.509,13.18-1.34,18.028l-48.518,48.518
		c-2.519,2.52-2.519,6.603,0,9.121l0,0c1.275,1.275,2.946,1.913,4.617,1.913s3.343-0.638,4.617-1.913l62.374-62.373
		c2.602-2.603,6.031-3.903,9.462-3.903c3.915,0.001,7.831,1.696,10.515,5.087c4.256,5.376,3.509,13.179-1.34,18.027l-62.081,62.081
		c-2.553,2.554-2.553,6.692,0,9.246c1.258,1.258,2.906,1.887,4.556,1.887c1.648,0,3.297-0.629,4.555-1.887l48.811-48.81
		c2.603-2.603,6.032-3.903,9.462-3.903c3.915,0,7.831,1.695,10.515,5.087c4.256,5.376,3.509,13.179-1.34,18.027l-48.349,48.35
		c-2.612,2.611-2.612,6.847,0,9.458l0.078,0.079c1.207,1.207,2.789,1.81,4.37,1.81c1.582,0,3.164-0.603,4.37-1.81l29.974-29.974
		c2.701-2.701,6.317-4.129,9.921-4.129c2.867,0,5.726,0.904,8.107,2.789c6.361,5.035,6.756,14.404,1.183,19.977l-34.63,34.631
		c-29.577,29.577-60.494,53.318-87.653,59.237C124.827,270.588,124.051,270.936,123.38,271.45z M13.333,168.751l12.281-14.277
		c0.006-0.007,0.011-0.017,0.012-0.026l12.72-92.483c0-7.286,5.961-13.247,13.247-13.247c7.286,0,13.248,5.961,13.248,13.247
		L65.186,74c-11.988,1.646-21.322,11.733-21.78,24.057l-12.145,88.307l-3.533,4.108l-14.103-14.08
		C11.542,174.313,11.415,170.981,13.333,168.751z M155.859,13.628c3.916,0.001,7.831,1.696,10.515,5.087
		c4.256,5.377,3.51,13.179-1.339,18.027l-70.919,70.186l-0.233-8.119c-0.061-7.825-3.7-14.812-9.356-19.405l61.871-61.872
		C148.999,14.93,152.429,13.628,155.859,13.628z M197.586,28.106c3.915,0,7.831,1.695,10.515,5.086
		c4.256,5.377,3.51,13.18-1.339,18.028l-6.177,6.176c-0.952,0.635-1.879,1.314-2.747,2.083c-0.701-3.98-2.364-7.823-5.013-11.169
		c-3.257-4.114-7.604-7.043-12.475-8.527l7.773-7.774C190.727,29.407,194.157,28.106,197.586,28.106z"/>
</g>
</svg>